# xmcd CD database file
# Copyright (C) 1995-1998 Ti Kan
#
# Track frame offsets:
#	150
#	19807
#	43228
#	59469
#	77917
#	94370
#	116786
#	141004
#	159634
#	180259
#
# Disc length: 2728 seconds
#
# Revision: 1
# Processed by: cddbd v1.4b42PL1 Copyright (c) Steve Scherf et al.
# Submitted via: CDex 1.40Beta3
#
DISCID=870aa60a
DTITLE=HV and JH and JN and TQ and VM and HC and VK and Da - Con Gai Bay Gio
DYEAR=1900
DGENRE=Blues
TTITLE0=Johnny Dung and Ha Vy - Con Gai Bay Gio
TTITLE1=Jimmii J.C. Nguyen - Ngoi Day Van Mong Doi
TTITLE2=Vina Uyen My  - Like A Fool
TTITLE3=Elvis Phuong - Tinh Ho
TTITLE4=Minh Tuyet - Em Van Doi Anh
TTITLE5=Henry Chuc - Lemon Tree
TTITLE6=Tu Quyen - Mo Lam Canh Chim
TTITLE7=Johnny Dung - Xin Mua Ngung Roi
TTITLE8=Dalena - Tinh Yeu Vinh Cuu
TTITLE9=Vu Khanh - Co Don
EXTD=ID3G:   0
EXTT0=
EXTT1=
EXTT2=
EXTT3=
EXTT4=
EXTT5=
EXTT6=
EXTT7=
EXTT8=
EXTT9=
PLAYORDER=
